<?xml version="1.0" encoding="UTF-8"?> <svg xmlns="http://www.w3.org/2000/svg" id="a" width="454.02" height="84.06" viewBox="0 0 454.02 84.06"><path d="M444.33,44.56c-5.15-1.66-6.04-2.16-6.04-3.38s.83-1.88,3.93-1.88c2.44,0,5.59,.77,8.48,2.33l2.44-6.04c-3.1-1.72-7.09-2.83-10.75-2.83-6.81,0-11.63,2.6-11.63,8.64s4.49,7.87,11.47,9.97c3.21,.94,4.26,1.61,4.26,2.94,0,1.5-.89,2.22-3.88,2.22-3.71,0-6.98-.94-10.08-2.66l-2.55,5.82c3.1,2.05,7.59,3.38,12.19,3.38,6.54,0,11.85-2.38,11.85-9.08,0-5.82-4.49-7.7-9.69-9.42m-19.06,1.5c0-8.2-3.32-13.29-10.75-13.29-3.05,0-5.48,1.16-6.81,2.55v-1.94h-7.64v29.08h7.64v-15.9c0-5.04,1.83-6.59,4.99-6.59s4.93,1.55,4.93,6.76v15.73h7.64v-16.4Zm-42.93,9.64c-3.66,0-5.37-3.27-5.37-7.75s1.72-7.81,5.37-7.81,5.43,3.38,5.43,7.81c0,4.04-1.77,7.75-5.43,7.75m0-22.93c-7.59,0-13.13,6.26-13.13,15.18s5.54,15.12,13.13,15.12,13.18-6.2,13.18-15.12-5.59-15.18-13.18-15.18m-17.95,.61h-7.64v29.08h7.64v-29.08Zm-3.82-11.13c-2.38,0-4.38,1.99-4.38,4.38s1.99,4.38,4.38,4.38,4.38-1.99,4.38-4.38-1.99-4.38-4.38-4.38m-14.18,33.51c-1.83,0-2.82-.72-2.82-3.49v-11.69h6.98v-7.2h-6.98v-11.3l-7.64,3.82v7.48h-4.87v7.2h4.87v13.74c0,5.1,3.05,8.75,7.75,8.75,2.38,0,4.65-.78,5.93-1.77l1.11-7.76c-1.88,1.61-2.94,2.22-4.32,2.22m-18.78-12.8c0-6.54-4.76-10.19-11.8-10.19-4.71,0-7.53,1-10.91,2.94l2.94,5.32c2.66-1.44,4.49-1.94,7.98-1.94,2.77,0,4.16,1.66,4.16,3.71v1.44c-1.22-.61-2.94-1.16-5.6-1.16-6.59,0-11.8,3.21-11.8,9.64,0,7.03,5.43,10.36,10.86,10.36,2.72,0,5.15-1.11,6.54-2.55v1.94h7.64v-19.5Zm-12.96,13.63c-3.27,0-4.43-1.83-4.43-3.88,0-2.33,1.55-3.66,4.43-3.66,2.72,0,3.99,.39,5.32,1.22v3.66c-.83,1.38-2.83,2.66-5.32,2.66m-19.61-4.6c-1.99,2.38-3.88,3.71-6.87,3.71-3.66,0-6.04-3.1-6.04-7.75s2.38-7.81,6.04-7.81c3.1,0,4.93,1.72,6.65,4.16l5.04-5.1c-2.44-3.71-5.98-6.43-11.52-6.43-8.09,0-13.96,6.26-13.96,15.18s6.04,15.12,13.63,15.12c5.76,0,9.08-2.71,11.91-6.48l-4.87-4.6Zm-25.48-18.61h-7.64v29.08h7.64v-29.08Zm-3.82-11.13c-2.38,0-4.38,1.99-4.38,4.38s1.99,4.38,4.38,4.38,4.38-1.99,4.38-4.38-1.99-4.38-4.38-4.38m-10.41-.17l-7.65,3.82V62.45h7.65V22.07Zm-23.88,10.69c-2.77,0-4.71,1.16-6.15,2.44v-1.83h-7.64v39.77l7.64-3.82v-8.53c1.38,1.27,3.6,2.27,6.15,2.27,7.2,0,11.3-6.09,11.3-14.79,0-10.86-5.1-15.51-11.3-15.51m-1,23.1c-2.22,0-3.99-.89-5.15-2.49v-10.97c1.11-1.44,2.33-2.44,4.71-2.44,2.99,0,4.99,2.49,4.99,8.48,0,4.87-1.61,7.42-4.54,7.42m-28.75-23.1c-2.77,0-4.71,1.16-6.15,2.44v-1.83h-7.64v39.77l7.64-3.82v-8.53c1.38,1.27,3.6,2.27,6.15,2.27,7.2,0,11.3-6.09,11.3-14.79,0-10.86-5.1-15.51-11.3-15.51m-1,23.1c-2.22,0-3.99-.89-5.15-2.49v-10.97c1.11-1.44,2.33-2.44,4.71-2.44,2.99,0,4.99,2.49,4.99,8.48,0,4.87-1.61,7.42-4.54,7.42m-32.07-32.18h-7.53l-14.85,38.78h8.31l3.05-8.64h14.18l3.05,8.64h8.53l-14.73-38.78Zm-8.36,22.77l2.49-7.03c.77-2.27,1.55-4.6,1.94-6.04,.39,1.44,1.16,3.77,1.94,6.04l2.49,7.03h-8.86Zm-49.15,8.36h-19.44V23.67h-7.75V62.45h27.2v-7.64Zm-37.17-31.13h-7.64l-7.81,17.56c-1,2.22-2.1,5.04-2.6,6.48-.5-1.39-1.66-4.32-2.66-6.48l-8.09-17.56h-7.48V62.45h7.59v-14.24c0-2.11-.11-7.04-.11-8.53,.55,1.44,1.72,4.21,2.71,6.43l7.87,17.23,7.87-17.23c1-2.22,2.16-4.99,2.71-6.43,0,1.5-.11,6.43-.11,8.53v14.24h7.75V23.67ZM16.78,41.18H7.76v-9.97h8.92c3.43,0,5.65,1.55,5.65,4.93s-1.94,5.04-5.54,5.04m.17-17.5H0V62.45H7.76v-13.74h8.53c8.03,0,14.02-3.77,14.02-12.74,0-8.25-6.04-12.3-13.35-12.3" fill="#fff"></path><line x1="128.91" x2="128.91" y2="84.06" fill="none" stroke="#fff" stroke-miterlimit="10"></line></svg> 