<?xml version="1.0" standalone="no"?>
<!DOCTYPE svg PUBLIC "-//W3C//DTD SVG 20010904//EN"
 "http://www.w3.org/TR/2001/REC-SVG-20010904/DTD/svg10.dtd">
<svg version="1.0" xmlns="http://www.w3.org/2000/svg"
 width="332.000000pt" height="332.000000pt" viewBox="0 0 332.000000 332.000000"
 preserveAspectRatio="xMidYMid meet">
<metadata>
Created by potrace 1.14, written by Peter Selinger 2001-2017
</metadata>
<g transform="translate(0.000000,332.000000) scale(0.100000,-0.100000)"
fill="#000000" stroke="none">
<path d="M875 3186 c-7 -11 -201 -349 -430 -751 -230 -401 -424 -741 -432
-755 -14 -24 -11 -31 49 -133 86 -147 81 -139 245 -421 80 -137 153 -263 163
-280 42 -75 347 -598 385 -661 l41 -70 885 0 c486 0 887 1 892 3 4 2 -107 118
-248 259 l-255 255 -48 -15 c-187 -61 -412 -68 -602 -17 -117 30 -119 31 -204
73 -287 140 -494 383 -581 682 -32 112 -35 133 -40 270 -16 479 269 899 724
1065 209 77 465 82 687 15 48 -14 49 -14 77 13 26 24 475 475 487 488 2 3
-397 4 -888 3 l-893 -2 -14 -21z"/>
<path d="M2644 2660 c-82 -83 -150 -152 -152 -154 -2 -2 20 -26 48 -52 146
-136 256 -328 310 -539 20 -77 24 -115 24 -260 0 -154 -3 -179 -28 -270 -51
-186 -139 -343 -273 -485 l-76 -81 152 -151 152 -151 27 20 c42 31 172 181
224 259 105 158 173 310 218 489 38 152 42 180 45 350 6 324 -79 614 -259 884
-58 87 -237 291 -255 291 -4 0 -75 -68 -157 -150z"/>
<path d="M1660 2380 c-195 -34 -377 -157 -488 -330 -38 -59 -87 -176 -96 -231
-3 -19 -8 -45 -11 -59 -8 -38 -8 -139 0 -195 69 -494 589 -776 1035 -563 80
38 178 108 226 160 60 66 141 205 159 273 5 17 9 35 11 40 43 157 21 362 -53
510 -146 289 -465 450 -783 395z"/>
</g>
</svg>
